<svg width="105" height="105" viewBox="0 0 105 105" fill="none" xmlns="http://www.w3.org/2000/svg">
<path d="M89.9246 62.3435C85.8777 61.3044 79.06 60.1925 76.5443 58.4789C75.5053 57.768 75.6329 56.9841 75.8152 56.4372C75.9975 55.9268 77.0365 55.3982 77.6745 55.4346C79.1147 55.4893 80.5548 55.7992 81.9402 56.182C85.0209 57.0206 88.0834 57.8956 91.1095 58.8982C92.7136 59.4268 93.224 60.6482 92.2943 61.432C91.7475 61.8878 91.2371 62.3435 89.9246 62.3435Z" fill="#CD4631"/>
<path d="M26.1224 90.5076C26.3047 89.5414 26.6693 89.031 27.1979 88.2836C29.2578 85.4034 31.4088 82.5779 33.5234 79.7523C33.651 79.5883 33.7969 79.406 33.9609 79.2784C34.6901 78.6586 35.5104 77.9294 36.4583 78.6039C37.4062 79.2966 37.0781 80.3174 36.5677 81.1378C34.4531 84.5831 32.3021 88.0102 30.1146 91.419C29.7865 91.9477 29.2214 92.4034 28.6562 92.6768C27.2526 93.3513 26.013 92.4216 26.1224 90.5076Z" fill="#CD4631"/>
<path d="M71.6771 89.87C71.6771 90.6903 71.0391 91.2737 70.5652 91.3648C69.9271 91.4924 69.3803 91.383 68.4688 90.7633C68.1589 90.5627 67.9766 90.0705 67.7943 89.6877C66.4636 86.8075 65.1146 83.9455 63.8204 81.0471C63.4922 80.3362 63.1641 79.5158 63.2188 78.7684C63.2735 78.094 63.6928 77.1278 64.2396 76.8908C64.7683 76.6539 65.4792 76.5809 66.3178 77.4013C66.6277 77.6929 66.9193 78.1851 67.1198 78.6408C68.4323 81.6851 69.7448 84.7294 71.0209 87.7919C71.2579 88.3752 71.4037 89.0132 71.6771 89.87Z" fill="#CD4631"/>
<path d="M13.8177 64.7502C12.9792 64.5132 12.4323 64.1122 12.3047 63.5653C12.1406 62.8726 12.487 61.9429 12.888 61.2866C13.1979 60.7945 13.9089 60.4846 14.5104 60.284C17.5183 59.2814 20.5443 58.2971 23.5886 57.3674C24.099 57.2033 24.7552 57.1486 25.2474 57.3127C26.0495 57.5861 26.3959 58.2241 25.7396 58.9898C25.375 59.4273 24.9558 59.883 24.4636 60.12C21.6198 61.5419 18.7578 62.909 15.8776 64.258C15.349 64.495 14.638 65.0054 13.8177 64.7502Z" fill="#CD4631"/>
<path d="M75.5781 33.4689C75.1771 33.3049 74.8308 32.6486 74.8125 32.2111C74.7943 31.6095 74.9766 30.8804 75.3412 30.3882C77.0365 28.0549 78.8229 25.758 80.5912 23.4793C80.8464 23.133 81.1927 22.8595 81.5391 22.5861C82.3229 21.9845 83.3438 21.4559 84.0365 22.3674C84.4375 22.896 84.5651 24.245 84.1823 24.7007C81.849 27.5444 79.3334 30.2606 76.836 32.9767C76.6354 33.2137 76.2344 33.5965 75.5781 33.4689Z" fill="#CD4631"/>
<path d="M17.1354 29.5132C18.1562 29.8231 18.9401 30.0054 19.6875 30.2788C21.8568 31.0627 24.026 31.8647 26.1771 32.6851C26.7786 32.922 27.4167 33.159 27.9088 33.5418C28.2552 33.8153 28.638 34.508 28.5104 34.7632C28.2917 35.1825 27.9635 35.7111 27.2161 35.6564C26.9062 35.6382 26.5052 35.62 26.1588 35.5288C23.7161 34.8726 21.2734 34.2528 18.8489 33.5236C18.0286 33.2866 17.1719 32.9403 16.5156 32.4116C16.0417 32.0288 15.6042 31.172 15.7318 30.6616C15.8411 30.1877 16.2422 29.5132 17.1354 29.5132Z" fill="#CD4631"/>
<path d="M50.4949 21.966C50.4767 22.1848 50.4584 22.4035 50.3855 22.6041C50.0756 23.4973 49.8751 24.4999 48.6173 24.4088C47.2866 24.3176 47.2319 23.2239 47.2501 22.3306C47.3048 20.1796 47.5053 18.0285 47.6694 15.8593C47.7423 15.0754 47.8334 14.2733 48.0522 13.5259C48.2709 12.7603 48.5808 11.9765 49.6381 12.1041C50.6225 12.2317 50.9506 12.8879 50.9689 13.7629C50.9689 14.7108 50.6772 20.1796 50.4949 21.966Z" fill="#CD4631"/>
</svg>
