<svg width="20" height="20" viewBox="0 0 20 20" fill="none" xmlns="http://www.w3.org/2000/svg">
<path d="M16.5334 4.8665C16.5334 5.6397 15.9066 6.2665 15.1334 6.2665C14.3602 6.2665 13.7334 5.6397 13.7334 4.8665C13.7334 4.09331 14.3602 3.4665 15.1334 3.4665C15.9066 3.4665 16.5334 4.09331 16.5334 4.8665Z" fill="black"/>
<path fill-rule="evenodd" clip-rule="evenodd" d="M10 14.6665C12.5773 14.6665 14.6667 12.5772 14.6667 9.99984C14.6667 7.42251 12.5773 5.33317 10 5.33317C7.42269 5.33317 5.33335 7.42251 5.33335 9.99984C5.33335 12.5772 7.42269 14.6665 10 14.6665ZM10 12.7998C11.5464 12.7998 12.8 11.5462 12.8 9.99984C12.8 8.45344 11.5464 7.19984 10 7.19984C8.45362 7.19984 7.20002 8.45344 7.20002 9.99984C7.20002 11.5462 8.45362 12.7998 10 12.7998Z" fill="black"/>
<path fill-rule="evenodd" clip-rule="evenodd" d="M0.666687 9.6265C0.666687 6.49021 0.666687 4.92206 1.27705 3.72416C1.81394 2.67045 2.67063 1.81376 3.72434 1.27687C4.92225 0.666504 6.49039 0.666504 9.62669 0.666504H10.3734C13.5096 0.666504 15.0778 0.666504 16.2757 1.27687C17.3294 1.81376 18.1861 2.67045 18.723 3.72416C19.3334 4.92206 19.3334 6.49021 19.3334 9.6265V10.3732C19.3334 13.5095 19.3334 15.0776 18.723 16.2755C18.1861 17.3292 17.3294 18.1859 16.2757 18.7228C15.0778 19.3332 13.5096 19.3332 10.3734 19.3332H9.62669C6.49039 19.3332 4.92225 19.3332 3.72434 18.7228C2.67063 18.1859 1.81394 17.3292 1.27705 16.2755C0.666687 15.0776 0.666687 13.5095 0.666687 10.3732V9.6265ZM9.62669 2.53317H10.3734C11.9723 2.53317 13.0592 2.53462 13.8994 2.60327C14.7178 2.67013 15.1363 2.79133 15.4283 2.94008C16.1307 3.29801 16.7019 3.86913 17.0598 4.57161C17.2085 4.86355 17.3297 5.28207 17.3966 6.10044C17.4652 6.94061 17.4667 8.02756 17.4667 9.6265V10.3732C17.4667 11.9721 17.4652 13.0591 17.3966 13.8992C17.3297 14.7176 17.2085 15.1361 17.0598 15.4281C16.7019 16.1305 16.1307 16.7017 15.4283 17.0596C15.1363 17.2084 14.7178 17.3295 13.8994 17.3964C13.0592 17.4651 11.9723 17.4665 10.3734 17.4665H9.62669C8.02774 17.4665 6.94079 17.4651 6.10062 17.3964C5.28225 17.3295 4.86374 17.2084 4.57179 17.0596C3.86932 16.7017 3.29819 16.1305 2.94026 15.4281C2.79151 15.1361 2.67031 14.7176 2.60345 13.8992C2.53481 13.0591 2.53335 11.9721 2.53335 10.3732V9.6265C2.53335 8.02756 2.53481 6.94061 2.60345 6.10044C2.67031 5.28207 2.79151 4.86355 2.94026 4.57161C3.29819 3.86913 3.86932 3.29801 4.57179 2.94008C4.86374 2.79133 5.28225 2.67013 6.10062 2.60327C6.94079 2.53462 8.02774 2.53317 9.62669 2.53317Z" fill="black"/>
</svg>
