<svg width="212" height="138" viewBox="0 0 212 138" fill="none" xmlns="http://www.w3.org/2000/svg">
<path d="M176.063 71.1165C170.467 72.6566 165.762 74.0797 160.996 75.2296C152.923 77.2129 144.861 78.8123 136.44 77.2671C127.898 75.691 122.13 70.8233 120.016 62.5873C118.726 57.5283 118.812 52.1323 118.473 46.8858C118.351 44.8337 118.806 42.7137 119.073 39.6428C115.703 42.7395 113.094 45.2133 110.385 47.5755C103.789 53.3756 97.4243 59.4496 90.4769 64.7731C80.9936 72.116 71.7944 70.5873 64.746 60.7921C61.985 56.9491 60.1368 52.3928 57.9133 48.1279C57.2523 46.8414 56.7838 45.4749 56.1141 43.8851C52.2897 51.295 48.7599 58.3929 44.9783 65.2976C36.1411 81.4052 22.4873 77.2787 14.6014 67.2269C12.4918 64.539 11.0013 61.2779 9.52035 58.1483C8.60058 56.0218 8.90478 53.6483 11.2641 52.6589C13.3906 51.7392 15.0007 53.1817 16.1644 55.0264C17.3383 56.8308 18.4006 58.7356 19.7471 60.369C21.3247 62.2763 22.9428 64.1938 24.8656 65.7591C30.282 70.1502 34.7708 69.7468 38.8801 64.0866C41.789 60.0984 44.124 55.6628 46.4788 51.3182C48.6705 47.2761 50.6809 43.1017 52.6913 38.9274C53.7523 36.7899 54.8941 34.6731 57.5526 34.5339C60.6053 34.3664 61.7966 36.7771 62.9079 38.9955C64.3398 41.8116 65.3363 44.8177 66.9202 47.5435C68.8746 51.0089 70.9201 54.4544 73.3613 57.5279C76.6869 61.6869 79.7158 62.2872 84.2863 59.5396C88.6543 56.9124 92.9731 53.9717 96.8692 50.6651C105.179 43.5391 113.207 36.1692 121.246 28.7589C123.154 27.0095 125.018 25.9369 127.439 27.07C129.748 28.1318 130.01 30.3058 129.767 32.6087C129.324 36.7096 128.698 40.85 128.466 44.962C128.278 48.5689 128.149 52.2771 128.617 55.8365C129.846 65.3518 134.476 69.4562 144.002 70.2083C151.164 70.7875 158.212 69.9616 165.142 68.2458C170.14 67.0262 175.049 65.4828 179.967 64.0708C182.567 63.315 185.259 62.5394 187.258 65.156C189.116 67.6507 188.033 70.2125 186.849 72.6627C186.329 73.691 185.657 74.6378 185.026 75.5949C183.724 77.4988 182.522 79.5143 181.038 81.286C170.092 94.5339 171.898 108.195 179.797 121.905C181.26 124.429 183.524 126.511 185.495 128.733C186.46 129.839 187.79 130.694 188.602 131.891C189.205 132.732 189.723 134.24 189.326 134.956C188.908 135.753 187.41 136.231 186.459 136.418C184.386 136.792 181.944 135.912 180.353 134.732C177.211 132.383 174.101 129.741 171.801 126.618C166.68 119.722 163.948 111.715 162.634 103.21C161.516 95.959 163.578 89.3898 167.396 83.3544C169.94 79.4452 172.767 75.78 176.063 71.1165Z" fill="black"/>
</svg>
